<svg width="58" height="60" viewBox="0 0 58 60" fill="none" xmlns="http://www.w3.org/2000/svg">
<path d="M57.5 29.9998C57.5 46.5685 44.7406 60 29.0011 60C22.3955 60 16.3147 57.6342 11.4818 53.6637L42.0469 21.4885C43.5057 23.9602 44.3467 26.8751 44.3467 29.9998C44.3467 37.3988 39.6213 43.6359 33.174 45.5493C32.2122 44.2329 30.7007 43.3845 29.0011 43.3845C26.0953 43.3845 23.7398 45.8642 23.7398 48.923C23.7398 51.9818 26.0953 54.4615 29.0011 54.4615C31.1765 54.4615 33.0435 53.0717 33.8446 51.0897C42.8885 48.7963 49.608 40.2241 49.608 29.9998C49.608 25.3443 48.2126 21.0283 45.841 17.4946L51.4808 11.5577C55.2527 16.6452 57.5 23.0462 57.5 29.9998Z" fill="#FFAF2E"/>
<path d="M12.159 42.5054L6.5192 48.4423C2.74736 43.3548 0.5 36.9537 0.5 30.0002C0.5 13.4315 13.2594 0 28.9989 0C35.6045 0 41.6853 2.36575 46.5182 6.33627L15.9531 38.5114C14.4944 36.0399 13.6533 33.125 13.6533 30.0001C13.6533 22.6012 18.3788 16.3641 24.826 14.4507C25.7879 15.7671 27.2993 16.6155 28.9989 16.6155C31.9047 16.6155 34.2603 14.1358 34.2603 11.077C34.2603 8.01815 31.9047 5.53848 28.9989 5.53848C26.8236 5.53848 24.9566 6.92822 24.1554 8.9103C15.1115 11.2037 8.392 19.7759 8.392 30.0001C8.392 34.6554 9.78732 38.9716 12.159 42.5054Z" fill="#F04148"/>
<ellipse cx="28.9974" cy="11.077" rx="2.19223" ry="2.3077" fill="#F04148"/>
<ellipse cx="28.9974" cy="48.9236" rx="2.19223" ry="2.3077" fill="#FFAF2E"/>
</svg>
